<svg width="256" height="256" viewBox="0 0 256 256" fill="none" xmlns="http://www.w3.org/2000/svg">
<path fill-rule="evenodd" clip-rule="evenodd" d="M86.1076 160.893C97.2396 179.872 113.571 187.233 135.101 182.977C139.402 200.112 131.835 211.738 119 220.438C112.513 224.836 94.1605 233.941 81.1427 238.156C84.1095 229.566 87.7317 221.245 92.0075 213.192C91.9436 213.163 91.8798 213.135 91.816 213.106C91.1406 212.801 90.3537 212.897 89.7608 213.341C84.912 216.974 79.6617 219.909 74.0112 222.144C63.5837 205.89 66.5 179.938 71.221 172.41C75.6715 165.313 79.3999 163.433 86.1076 160.893Z" fill="#FD3A44"/>
<path fill-rule="evenodd" clip-rule="evenodd" d="M187 18C204.41 51.8027 207.383 92.3802 198 129C202.072 137.977 206.572 146.81 211.5 155.5C214.674 166.134 212.507 175.468 205 183.5C185.371 199.216 165.537 214.549 145.5 229.5C141.568 229.401 139.401 227.401 139 223.5C141.344 213.79 143.844 204.124 146.5 194.5C148.386 187.451 146.553 181.618 141 177C122.552 167.524 103.719 159.024 84.5003 151.5C81.0913 151.952 77.9243 153.119 75.0002 155C67.0942 164.149 59.4282 173.483 52.0002 183C48.8643 184.041 46.3642 183.207 44.5002 180.5C43.8332 153.833 43.8332 127.167 44.5002 100.5C46.8032 93.861 50.9692 88.694 57.0002 85C68.2892 82.076 79.6223 79.409 91.0003 77C109.968 52.5846 145.5 24.9385 187 18Z" fill="#6C09DC"/>
<path fill-rule="evenodd" clip-rule="evenodd" d="M146.482 153.726C144.909 142.166 143.335 130.606 141.762 119.046C129.211 120.754 116.66 122.463 104.109 124.171C101.331 123.332 100.236 121.463 100.823 118.563C109.718 101.043 118.977 83.8029 128.601 66.844C130.897 65.8957 132.827 66.4737 134.388 68.5794C136.456 80.0674 138.195 91.6053 139.604 103.192C152.137 101.318 164.71 99.7749 177.324 98.5626C178.725 99.1834 179.543 100.25 179.778 101.761C172.033 118.934 163.742 135.874 154.905 152.58C152.501 156.911 149.694 157.293 146.482 153.726Z" fill="#FBFBFB"/>
</svg>
